<svg width="56.000000" height="56.000000" viewBox="0 0 56 56" fill="none" xmlns="http://www.w3.org/2000/svg" xmlns:xlink="http://www.w3.org/1999/xlink">
	<desc>
			Created with Pixso.
	</desc>
	<defs>
		<filter id="filter_2_380_dd" x="0.000000" y="0.000000" width="56.000000" height="56.000000" filterUnits="userSpaceOnUse" color-interpolation-filters="sRGB">
			<feFlood flood-opacity="0" result="BackgroundImageFix"/>
			<feColorMatrix in="SourceAlpha" type="matrix" values="0 0 0 0 0 0 0 0 0 0 0 0 0 0 0 0 0 0 127 0" result="hardAlpha"/>
			<feMorphology radius="-1" in="" result="BackgroundImageFix"/>
			<feOffset dx="1" dy="4"/>
			<feGaussianBlur stdDeviation="3.33333"/>
			<feComposite in2="hardAlpha" operator="out" k2="-1" k3="1"/>
			<feColorMatrix type="matrix" values="0 0 0 0 0.27843 0 0 0 0 0.57647 0 0 0 0 1 0 0 0 0.2 0"/>
			<feBlend mode="normal" in2="BackgroundImageFix" result="effect_dropShadow_1"/>
			<feBlend mode="normal" in="SourceGraphic" in2="effect_dropShadow_1" result="shape"/>
		</filter>
		<clipPath id="clip2_415">
			<rect id="evaporator 1" width="36.000000" height="36.000000" transform="translate(9.000000 11.000000)" fill="white" fill-opacity="0"/>
		</clipPath>
	</defs>
	<g opacity="0.880000" filter="url(#filter_2_380_dd)">
		<circle id="Ellipse 3" cx="27.000000" cy="24.000000" r="19.000000" fill="#FFFFFF" fill-opacity="1.000000"/>
	</g>
	<g opacity="0.880000">
		<rect id="evaporator 1" width="36.000000" height="36.000000" transform="translate(9.000000 11.000000)" fill="#FFFFFF" fill-opacity="0"/>
		<g clip-path="url(#clip2_415)">
			<path id="Vector" d="M33.47 27.28C33.04 27.28 32.62 27.17 32.24 26.96C31.86 26.76 31.55 26.46 31.31 26.1C31.08 26.46 30.77 26.76 30.39 26.96C30.01 27.17 29.59 27.28 29.16 27.28C28.73 27.28 28.31 27.17 27.93 26.96C27.56 26.76 27.24 26.46 27.01 26.1C26.78 26.46 26.46 26.76 26.08 26.96C25.71 27.17 25.29 27.28 24.86 27.28C24.43 27.28 24.01 27.17 23.63 26.96C23.25 26.76 22.93 26.46 22.7 26.1C22.41 26.56 21.97 26.92 21.45 27.11C20.93 27.31 20.36 27.33 19.83 27.17C19.3 27.02 18.84 26.7 18.51 26.25C18.17 25.81 18 25.27 18 24.72C18 24.61 18.04 24.51 18.11 24.44C18.19 24.36 18.29 24.32 18.4 24.32C18.5 24.32 18.61 24.36 18.68 24.44C18.76 24.51 18.8 24.61 18.8 24.72C18.8 24.95 18.84 25.18 18.93 25.4C19.01 25.61 19.14 25.81 19.31 25.97C19.47 26.14 19.66 26.27 19.88 26.36C20.09 26.45 20.32 26.49 20.55 26.49C20.78 26.49 21.01 26.45 21.23 26.36C21.44 26.27 21.63 26.14 21.8 25.97C21.96 25.81 22.09 25.61 22.17 25.4C22.26 25.18 22.3 24.95 22.3 24.72C22.3 24.61 22.34 24.51 22.42 24.44C22.49 24.36 22.6 24.32 22.7 24.32C22.81 24.32 22.91 24.36 22.99 24.44C23.06 24.51 23.11 24.61 23.11 24.72C23.1 24.95 23.15 25.18 23.23 25.4C23.32 25.61 23.45 25.81 23.61 25.97C23.77 26.14 23.97 26.27 24.18 26.36C24.4 26.45 24.62 26.49 24.86 26.49C25.09 26.49 25.32 26.45 25.53 26.36C25.74 26.27 25.94 26.14 26.1 25.97C26.26 25.81 26.39 25.61 26.48 25.4C26.57 25.18 26.61 24.95 26.61 24.72C26.61 24.61 26.65 24.51 26.72 24.44C26.8 24.36 26.9 24.32 27.01 24.32C27.12 24.32 27.22 24.36 27.29 24.44C27.37 24.51 27.41 24.61 27.41 24.72C27.41 24.95 27.45 25.18 27.54 25.4C27.63 25.61 27.75 25.81 27.92 25.97C28.08 26.14 28.27 26.27 28.49 26.36C28.7 26.45 28.93 26.49 29.16 26.49C29.39 26.49 29.62 26.45 29.84 26.36C30.05 26.27 30.24 26.14 30.41 25.97C30.57 25.81 30.7 25.61 30.79 25.4C30.87 25.18 30.92 24.95 30.91 24.72C30.91 24.61 30.96 24.51 31.03 24.44C31.11 24.36 31.21 24.32 31.31 24.32C31.42 24.32 31.52 24.36 31.6 24.44C31.67 24.51 31.72 24.61 31.72 24.72C31.71 24.95 31.76 25.18 31.84 25.4C31.93 25.61 32.06 25.81 32.22 25.97C32.39 26.14 32.58 26.27 32.79 26.36C33.01 26.45 33.24 26.49 33.47 26.49C33.7 26.49 33.93 26.45 34.14 26.36C34.36 26.27 34.55 26.14 34.71 25.97C34.88 25.81 35 25.61 35.09 25.4C35.18 25.18 35.22 24.95 35.22 24.72C35.22 24.61 35.26 24.51 35.34 24.44C35.41 24.36 35.51 24.32 35.62 24.32C35.73 24.32 35.83 24.36 35.91 24.44C35.98 24.51 36.02 24.61 36.02 24.72C36.02 25.4 35.75 26.05 35.27 26.53C34.79 27.01 34.15 27.28 33.47 27.28Z" fill="#AFD1FD" fill-opacity="1.000000" fill-rule="nonzero"/>
			<path id="Vector" d="M33.47 32.02C33.04 32.02 32.62 31.91 32.24 31.71C31.86 31.5 31.55 31.2 31.31 30.84C31.08 31.2 30.77 31.5 30.39 31.71C30.01 31.91 29.59 32.02 29.16 32.02C28.73 32.02 28.31 31.91 27.93 31.71C27.56 31.5 27.24 31.2 27.01 30.84C26.78 31.2 26.46 31.5 26.08 31.71C25.71 31.91 25.29 32.02 24.86 32.02C24.43 32.02 24.01 31.91 23.63 31.71C23.25 31.5 22.93 31.2 22.7 30.84C22.41 31.31 21.97 31.67 21.45 31.86C20.93 32.05 20.36 32.08 19.83 31.92C19.3 31.77 18.84 31.44 18.51 31C18.17 30.56 17.99 30.02 18 29.47C18 29.36 18.04 29.26 18.11 29.18C18.19 29.11 18.29 29.07 18.4 29.07C18.5 29.07 18.61 29.11 18.68 29.18C18.76 29.26 18.8 29.36 18.8 29.47C18.8 29.7 18.84 29.93 18.93 30.14C19.01 30.36 19.14 30.55 19.31 30.72C19.47 30.88 19.66 31.01 19.88 31.1C20.09 31.19 20.32 31.24 20.55 31.24C20.78 31.24 21.01 31.19 21.22 31.1C21.44 31.01 21.63 30.88 21.8 30.72C21.96 30.55 22.09 30.36 22.17 30.14C22.26 29.93 22.3 29.7 22.3 29.47C22.3 29.36 22.34 29.26 22.42 29.18C22.49 29.11 22.6 29.07 22.7 29.07C22.81 29.07 22.91 29.11 22.99 29.18C23.06 29.26 23.11 29.36 23.11 29.47C23.1 29.7 23.15 29.93 23.23 30.14C23.32 30.36 23.45 30.55 23.61 30.72C23.77 30.88 23.97 31.01 24.18 31.1C24.39 31.19 24.62 31.24 24.86 31.24C25.09 31.24 25.32 31.19 25.53 31.1C25.74 31.01 25.94 30.88 26.1 30.72C26.26 30.55 26.39 30.36 26.48 30.14C26.57 29.93 26.61 29.7 26.61 29.47C26.61 29.36 26.65 29.26 26.72 29.18C26.8 29.11 26.9 29.07 27.01 29.07C27.12 29.07 27.22 29.11 27.29 29.18C27.37 29.26 27.41 29.36 27.41 29.47C27.41 29.7 27.45 29.93 27.54 30.14C27.63 30.36 27.75 30.55 27.92 30.72C28.08 30.88 28.27 31.01 28.49 31.1C28.7 31.19 28.93 31.24 29.16 31.24C29.39 31.24 29.62 31.19 29.84 31.1C30.05 31.01 30.24 30.88 30.41 30.72C30.57 30.55 30.7 30.36 30.78 30.14C30.87 29.93 30.91 29.7 30.91 29.47C30.91 29.36 30.95 29.26 31.03 29.18C31.11 29.11 31.21 29.07 31.31 29.07C31.42 29.07 31.52 29.11 31.6 29.18C31.67 29.26 31.72 29.36 31.72 29.47C31.71 29.7 31.76 29.93 31.84 30.14C31.93 30.36 32.06 30.55 32.22 30.72C32.38 30.88 32.58 31.01 32.79 31.1C33.01 31.19 33.24 31.24 33.47 31.24C33.7 31.24 33.93 31.19 34.14 31.1C34.36 31.01 34.55 30.88 34.71 30.72C34.87 30.55 35 30.36 35.09 30.14C35.18 29.93 35.22 29.7 35.22 29.47C35.22 29.36 35.26 29.26 35.34 29.18C35.41 29.11 35.51 29.07 35.62 29.07C35.73 29.07 35.83 29.11 35.9 29.18C35.98 29.26 36.02 29.36 36.02 29.47C36.02 30.15 35.75 30.79 35.27 31.27C34.79 31.75 34.15 32.02 33.47 32.02Z" fill="#9AA1EB" fill-opacity="1.000000" fill-rule="nonzero"/>
			<path id="Vector" d="M28.81 15.63L27.29 14.11C27.26 14.08 27.21 14.05 27.16 14.03C27.11 14.01 27.06 14 27.01 14C26.96 14 26.9 14.01 26.85 14.03C26.81 14.05 26.76 14.08 26.72 14.11L25.21 15.63C25.13 15.71 25.09 15.81 25.09 15.92C25.09 16.02 25.13 16.12 25.21 16.2C25.28 16.28 25.38 16.32 25.49 16.32C25.6 16.32 25.7 16.28 25.77 16.2L26.61 15.37L26.61 19.38C26.61 19.49 26.65 19.59 26.72 19.66C26.8 19.74 26.9 19.78 27.01 19.78C27.12 19.78 27.22 19.74 27.29 19.66C27.37 19.59 27.41 19.49 27.41 19.38L27.41 15.37L28.24 16.2C28.28 16.24 28.32 16.27 28.37 16.29C28.42 16.31 28.47 16.32 28.53 16.32C28.58 16.32 28.63 16.31 28.68 16.29C28.73 16.27 28.77 16.24 28.81 16.2C28.85 16.16 28.88 16.12 28.9 16.07C28.92 16.02 28.93 15.97 28.93 15.92C28.93 15.86 28.92 15.81 28.9 15.76C28.88 15.71 28.85 15.67 28.81 15.63Z" fill="#BFFDFF" fill-opacity="1.000000" fill-rule="nonzero"/>
			<path id="Vector" d="M20.91 16.86C20.87 16.83 20.83 16.8 20.78 16.78C20.73 16.76 20.68 16.75 20.62 16.75C20.57 16.75 20.52 16.76 20.47 16.78C20.42 16.8 20.38 16.83 20.34 16.86L18.82 18.38C18.75 18.46 18.7 18.56 18.7 18.67C18.7 18.77 18.75 18.88 18.82 18.95C18.9 19.03 19 19.07 19.1 19.07C19.21 19.07 19.31 19.03 19.39 18.95L20.22 18.12L20.22 22.13C20.22 22.24 20.26 22.34 20.34 22.41C20.41 22.49 20.52 22.53 20.62 22.53C20.73 22.53 20.83 22.49 20.91 22.41C20.98 22.34 21.03 22.24 21.03 22.13L21.03 18.12L21.86 18.95C21.93 19.02 22.04 19.06 22.14 19.06C22.25 19.06 22.35 19.02 22.42 18.95C22.5 18.87 22.54 18.77 22.54 18.67C22.54 18.56 22.5 18.46 22.43 18.38L20.91 16.86Z" fill="#BFFDFF" fill-opacity="1.000000" fill-rule="nonzero"/>
			<path id="Vector" d="M35.2 18.38L33.68 16.86C33.64 16.83 33.6 16.8 33.55 16.78C33.5 16.76 33.45 16.75 33.39 16.75C33.34 16.75 33.29 16.76 33.24 16.78C33.19 16.8 33.15 16.83 33.11 16.86L31.59 18.38C31.55 18.42 31.52 18.46 31.5 18.51C31.48 18.56 31.47 18.61 31.47 18.67C31.47 18.72 31.48 18.77 31.5 18.82C31.52 18.87 31.55 18.92 31.59 18.96C31.62 18.99 31.67 19.02 31.72 19.04C31.77 19.06 31.82 19.07 31.87 19.07C31.93 19.07 31.98 19.06 32.03 19.04C32.08 19.02 32.12 18.99 32.16 18.95L32.99 18.12L32.99 22.13C32.99 22.24 33.03 22.34 33.11 22.41C33.18 22.49 33.29 22.53 33.39 22.53C33.5 22.53 33.6 22.49 33.68 22.41C33.75 22.34 33.8 22.24 33.8 22.13L33.8 18.12L34.63 18.95C34.7 19.03 34.81 19.07 34.91 19.07C35.02 19.07 35.12 19.03 35.2 18.95C35.27 18.88 35.31 18.77 35.31 18.67C35.31 18.56 35.27 18.46 35.2 18.38Z" fill="#BFFDFF" fill-opacity="1.000000" fill-rule="nonzero"/>
			<path id="Vector" d="M24.84 20.25C24.79 20.25 24.73 20.26 24.69 20.28C24.64 20.3 24.59 20.33 24.55 20.37C24.52 20.41 24.49 20.45 24.47 20.5C24.45 20.55 24.44 20.6 24.44 20.65L24.44 24.04C24.44 24.15 24.48 24.25 24.55 24.33C24.63 24.4 24.73 24.45 24.84 24.45C24.95 24.45 25.05 24.4 25.12 24.33C25.2 24.25 25.24 24.15 25.24 24.04L25.24 20.65C25.24 20.6 25.23 20.55 25.21 20.5C25.19 20.45 25.16 20.41 25.12 20.37C25.09 20.33 25.04 20.3 24.99 20.28C24.94 20.26 24.89 20.25 24.84 20.25Z" fill="#BFFDFF" fill-opacity="1.000000" fill-rule="nonzero"/>
			<path id="Vector" d="M29.18 20.25C29.13 20.25 29.07 20.26 29.02 20.28C28.98 20.3 28.93 20.33 28.89 20.37C28.86 20.41 28.83 20.45 28.81 20.5C28.79 20.55 28.78 20.6 28.78 20.65L28.78 24.04C28.78 24.15 28.82 24.25 28.89 24.33C28.97 24.4 29.07 24.45 29.18 24.45C29.28 24.45 29.39 24.4 29.46 24.33C29.54 24.25 29.58 24.15 29.58 24.04L29.58 20.65C29.58 20.6 29.57 20.55 29.55 20.5C29.53 20.45 29.5 20.41 29.46 20.37C29.43 20.33 29.38 20.3 29.33 20.28C29.28 20.26 29.23 20.25 29.18 20.25Z" fill="#BFFDFF" fill-opacity="1.000000" fill-rule="nonzero"/>
		</g>
	</g>
</svg>
