<svg width="36.000000" height="35.000000" viewBox="0 0 44 33" fill="none" xmlns="http://www.w3.org/2000/svg" xmlns:xlink="http://www.w3.org/1999/xlink">
	<desc>
			Created with Pixso.
	</desc>
	<defs>
		<linearGradient id="paint_linear_2_290_0" x1="18.000002" y1="0.000000" x2="18.000002" y2="22.000000" gradientUnits="userSpaceOnUse">
			<stop stop-color="#9FC7FF"/>
			<stop offset="1.000000" stop-color="#9BC1F5"/>
		</linearGradient>
		<radialGradient id="paint_radial_2_291_0" cx="0.000000" cy="0.000000" r="1.000000" gradientUnits="userSpaceOnUse" gradientTransform="translate(4.75395 -30.6966) rotate(-90) scale(20.9574 6.69705)">
			<stop stop-color="#486DA8" stop-opacity="0.400000"/>
			<stop offset="1.000000" stop-color="#486DA8" stop-opacity="0.000000"/>
		</radialGradient>
	</defs>
	<path id="Vector" d="M10.21 26.92L8.11 31.92C7.79 32.68 8.15 33.56 8.91 33.88C9.68 34.2 10.56 33.84 10.88 33.08L12.98 28.08C13.3 27.32 12.94 26.44 12.18 26.12C11.41 25.8 10.53 26.16 10.21 26.92ZM20.21 24.92L18.11 29.92C17.79 30.68 18.15 31.56 18.92 31.88C19.68 32.2 20.56 31.85 20.88 31.08L22.98 26.08C23.3 25.32 22.94 24.44 22.18 24.12C21.41 23.8 20.53 24.16 20.21 24.92Z" fill="#66AFEB" fill-opacity="1.000000" fill-rule="nonzero"/>
	<path id="Vector" d="M8 22C3.58 22 0 18.41 0 14C0 9.58 3.58 6 8 6C8.83 6 9.63 6.12 10.39 6.36C11.51 2.67 14.94 0 19 0C23.97 0 28 4.03 28 9C28 9.47 27.96 9.92 27.89 10.38C28.55 10.13 29.25 10 30 10C33.31 10 36 12.68 36 16C36 19.31 33.31 22 30 22L8 22Z" fill="url(#paint_linear_2_290_0)" fill-opacity="1.000000" fill-rule="nonzero"/>
	<path id="Vector" d="M10 9C10 13.97 14.03 18 19 18C23.5 18 27.23 14.69 27.89 10.38C28.55 10.13 29.25 10 30 10C33.31 10 36 12.68 36 16C36 19.31 33.31 22 30 22L8 22C3.58 22 0 18.41 0 14C0 9.58 3.58 6 8 6C8.83 6 9.63 6.12 10.39 6.36C10.13 7.19 10 8.08 10 9Z" fill="url(#paint_radial_2_291_0)" fill-opacity="1.000000" fill-rule="nonzero"/>
</svg>
