<svg width="33.000000" height="33.000000" viewBox="0 0 44 33" fill="none" xmlns="http://www.w3.org/2000/svg" xmlns:xlink="http://www.w3.org/1999/xlink">
	<desc>
			Created with Pixso.
	</desc>
	<defs>
		<linearGradient id="paint_linear_2_439_0" x1="16.506351" y1="8.600586" x2="16.506351" y2="24.196629" gradientUnits="userSpaceOnUse">
			<stop stop-color="#FFC227"/>
			<stop offset="1.000000" stop-color="#FFB300"/>
		</linearGradient>
	</defs>
	<path id="Vector" d="M24.41 16.5C24.41 20.86 20.87 24.4 16.5 24.4C12.14 24.4 8.6 20.86 8.6 16.5C8.6 12.13 12.14 8.6 16.5 8.6C20.87 8.6 24.41 12.13 24.41 16.5Z" fill="url(#paint_linear_2_439_0)" fill-opacity="1.000000" fill-rule="evenodd"/>
	<path id="Vector" d="M23.93 1.65L22.07 6.13C21.47 7.59 19.28 6.68 19.88 5.22L21.74 0.74C22.34 -0.72 24.53 0.18 23.93 1.65ZM13.11 27.77L11.25 32.25C10.64 33.71 8.45 32.81 9.06 31.35L10.92 26.86C11.52 25.4 13.71 26.31 13.11 27.77ZM32.25 11.25L27.77 13.11C26.31 13.72 25.4 11.52 26.86 10.92L31.35 9.06C32.81 8.46 33.71 10.65 32.25 11.25ZM6.13 22.07L1.64 23.93C0.18 24.54 -0.72 22.35 0.74 21.74L5.22 19.88C6.68 19.28 7.59 21.47 6.13 22.07ZM31.35 23.93L26.86 22.08C25.4 21.47 26.31 19.28 27.77 19.88L32.25 21.74C33.71 22.35 32.81 24.54 31.35 23.93ZM5.22 13.11L0.74 11.25C-0.72 10.65 0.18 8.46 1.64 9.06L6.13 10.92C7.59 11.53 6.68 13.72 5.22 13.11ZM11.25 0.74L13.11 5.22C13.71 6.68 11.52 7.59 10.92 6.13L9.06 1.64C8.45 0.18 10.64 -0.72 11.25 0.74ZM22.07 26.86L23.93 31.34C24.53 32.81 22.34 33.71 21.74 32.25L19.88 27.77C19.27 26.31 21.46 25.4 22.07 26.86Z" fill="#FFB300" fill-opacity="1.000000" fill-rule="nonzero"/>
</svg>
