<svg width="22.000000" height="33.000000" viewBox="0 0 44 33" fill="none" xmlns="http://www.w3.org/2000/svg" xmlns:xlink="http://www.w3.org/1999/xlink">
	<desc>
			Created with Pixso.
	</desc>
	<defs>
		<linearGradient id="paint_linear_2_275_0" x1="36.000000" y1="6.999997" x2="24.783199" y2="18.072319" gradientUnits="userSpaceOnUse">
			<stop stop-color="#FFB301"/>
			<stop offset="1.000000" stop-color="#FFC533"/>
		</linearGradient>
		<linearGradient id="paint_linear_2_278_0" x1="17.999998" y1="11.000000" x2="17.999998" y2="33.000000" gradientUnits="userSpaceOnUse">
			<stop stop-color="#9FC7FF"/>
			<stop offset="1.000000" stop-color="#9BC1F5"/>
		</linearGradient>
		<radialGradient id="paint_radial_2_279_0" cx="0.000000" cy="0.000000" r="1.000000" gradientUnits="userSpaceOnUse" gradientTransform="translate(11.0679 -23.6966) rotate(-90) scale(20.9574 6.69705)">
			<stop stop-color="#486DA8" stop-opacity="0.400000"/>
			<stop offset="1.000000" stop-color="#486DA8" stop-opacity="0.000000"/>
		</radialGradient>
	</defs>
	<path id="Vector" d="M36 15C36 19.41 32.41 23 28 23C23.58 23 20 19.41 20 15C20 10.58 23.58 7 28 7C32.41 7 36 10.58 36 15Z" fill="url(#paint_linear_2_275_0)" fill-opacity="1.000000" fill-rule="evenodd"/>
	<path id="Vector" d="M26.96 0.45L27.48 3.41C27.82 5.38 24.87 5.9 24.52 3.93L24 0.97C23.65 -1 26.61 -1.52 26.96 0.45ZM37.54 3.98L35.82 6.43C34.67 8.07 32.22 6.35 33.36 4.71L35.08 2.26C36.23 0.62 38.69 2.34 37.54 3.98ZM16.98 5.45L19.44 7.17C21.08 8.32 19.36 10.77 17.72 9.63L15.26 7.91C13.62 6.76 15.34 4.3 16.98 5.45ZM38.28 20.36L40.74 22.08C42.37 23.23 40.65 25.69 39.02 24.54L36.56 22.82C34.92 21.67 36.64 19.21 38.28 20.36ZM42.54 13.95L39.58 14.47C37.61 14.82 37.09 11.87 39.06 11.52L42.02 11C43.99 10.65 44.51 13.61 42.54 13.95Z" fill="#FFB300" fill-opacity="1.000000" fill-rule="nonzero"/>
	<path id="Vector" d="M10.21 37.92L8.11 42.92C7.79 43.68 8.15 44.56 8.91 44.88C9.68 45.2 10.56 44.84 10.88 44.08L12.98 39.08C13.3 38.32 12.94 37.44 12.18 37.12C11.41 36.8 10.53 37.16 10.21 37.92ZM20.21 35.92L18.11 40.92C17.79 41.68 18.15 42.56 18.92 42.88C19.68 43.2 20.56 42.84 20.88 42.08L22.98 37.08C23.3 36.32 22.94 35.44 22.18 35.12C21.41 34.8 20.53 35.16 20.21 35.92Z" fill="#66AFEB" fill-opacity="1.000000" fill-rule="nonzero"/>
	<path id="Vector" d="M8 33C3.58 33 0 29.41 0 25C0 20.58 3.58 17 8 17C8.83 17 9.63 17.12 10.39 17.36C11.51 13.68 14.94 11 19 11C23.97 11 28 15.03 28 20C28 20.46 27.96 20.93 27.89 21.38C28.55 21.13 29.25 21 30 21C33.31 21 36 23.68 36 27C36 30.31 33.31 33 30 33L8 33Z" fill="url(#paint_linear_2_278_0)" fill-opacity="1.000000" fill-rule="nonzero"/>
	<path id="Vector" d="M10 20C10 24.97 14.03 29 19 29C23.5 29 27.23 25.69 27.89 21.38C28.55 21.13 29.25 21 30 21C33.31 21 36 23.68 36 27C36 30.31 33.31 33 30 33L8 33C3.58 33 0 29.41 0 25C0 20.58 3.58 17 8 17C8.83 17 9.63 17.12 10.39 17.36C10.13 18.19 10 19.08 10 20Z" fill="url(#paint_radial_2_279_0)" fill-opacity="1.000000" fill-rule="nonzero"/>
</svg>
