<svg width="56.000000" height="56.000000" viewBox="0 0 56 56" fill="none" xmlns="http://www.w3.org/2000/svg" xmlns:xlink="http://www.w3.org/1999/xlink">
	<desc>
			Created with Pixso.
	</desc>
	<defs>
		<filter id="filter_2_377_dd" x="0.000000" y="0.000000" width="56.000000" height="56.000000" filterUnits="userSpaceOnUse" color-interpolation-filters="sRGB">
			<feFlood flood-opacity="0" result="BackgroundImageFix"/>
			<feColorMatrix in="SourceAlpha" type="matrix" values="0 0 0 0 0 0 0 0 0 0 0 0 0 0 0 0 0 0 127 0" result="hardAlpha"/>
			<feMorphology radius="-1" in="" result="BackgroundImageFix"/>
			<feOffset dx="1" dy="4"/>
			<feGaussianBlur stdDeviation="3.33333"/>
			<feComposite in2="hardAlpha" operator="out" k2="-1" k3="1"/>
			<feColorMatrix type="matrix" values="0 0 0 0 0.27843 0 0 0 0 0.57647 0 0 0 0 1 0 0 0 0.2 0"/>
			<feBlend mode="normal" in2="BackgroundImageFix" result="effect_dropShadow_1"/>
			<feBlend mode="normal" in="SourceGraphic" in2="effect_dropShadow_1" result="shape"/>
		</filter>
		<clipPath id="clip2_392">
			<rect id="thermometer 1" width="25.000000" height="25.000000" transform="translate(15.000000 12.000000)" fill="white" fill-opacity="0"/>
		</clipPath>
	</defs>
	<g filter="url(#filter_2_377_dd)">
		<circle id="Ellipse 1" cx="27.000000" cy="24.000000" r="19.000000" fill="#FFFFFF" fill-opacity="1.000000"/>
	</g>
	<rect id="thermometer 1" width="25.000000" height="25.000000" transform="translate(15.000000 12.000000)" fill="#FFFFFF" fill-opacity="0"/>
	<g clip-path="url(#clip2_392)">
		<path id="Vector" d="M30.4 14.98L34.1 14.98C34.3 14.98 34.47 14.81 34.47 14.61C34.47 14.41 34.3 14.24 34.1 14.24L30.4 14.24C30.2 14.24 30.03 14.41 30.03 14.61C30.03 14.81 30.2 14.98 30.4 14.98Z" fill="#4F667A" fill-opacity="1.000000" fill-rule="nonzero"/>
		<path id="Vector" d="M30.4 16.67L32.25 16.67C32.45 16.67 32.62 16.5 32.62 16.3C32.62 16.1 32.45 15.94 32.25 15.94L30.4 15.94C30.2 15.94 30.03 16.1 30.03 16.3C30.03 16.5 30.2 16.67 30.4 16.67Z" fill="#4F667A" fill-opacity="1.000000" fill-rule="nonzero"/>
		<path id="Vector" d="M34.1 17.64L30.4 17.64C30.2 17.64 30.04 17.81 30.04 18.01C30.04 18.21 30.2 18.38 30.4 18.38L34.1 18.38C34.3 18.38 34.47 18.21 34.47 18.01C34.47 17.81 34.3 17.64 34.1 17.64Z" fill="#4F667A" fill-opacity="1.000000" fill-rule="nonzero"/>
		<path id="Vector" d="M30.4 20.07L32.25 20.07C32.45 20.07 32.62 19.9 32.62 19.7C32.62 19.5 32.45 19.34 32.25 19.34L30.4 19.34C30.2 19.34 30.03 19.5 30.03 19.7C30.03 19.9 30.2 20.07 30.4 20.07Z" fill="#4F667A" fill-opacity="1.000000" fill-rule="nonzero"/>
		<path id="Vector" d="M34.1 21.02L30.4 21.02C30.2 21.02 30.04 21.18 30.04 21.39C30.04 21.59 30.2 21.75 30.4 21.75L34.1 21.75C34.3 21.75 34.47 21.59 34.47 21.39C34.47 21.18 34.3 21.02 34.1 21.02Z" fill="#4F667A" fill-opacity="1.000000" fill-rule="nonzero"/>
		<path id="Vector" d="M30.4 23.44L32.25 23.44C32.45 23.44 32.62 23.28 32.62 23.08C32.62 22.87 32.45 22.71 32.25 22.71L30.4 22.71C30.2 22.71 30.03 22.87 30.03 23.08C30.03 23.28 30.2 23.44 30.4 23.44Z" fill="#4F667A" fill-opacity="1.000000" fill-rule="nonzero"/>
		<path id="Vector" d="M34.1 24.43L30.4 24.43C30.2 24.43 30.04 24.59 30.04 24.79C30.04 24.99 30.2 25.16 30.4 25.16L34.1 25.16C34.3 25.16 34.47 24.99 34.47 24.79C34.47 24.59 34.3 24.43 34.1 24.43Z" fill="#4F667A" fill-opacity="1.000000" fill-rule="nonzero"/>
		<path id="Vector" d="M32.25 26.12L30.4 26.12C30.2 26.12 30.03 26.28 30.03 26.48C30.03 26.69 30.2 26.85 30.4 26.85L32.25 26.85C32.45 26.85 32.62 26.69 32.62 26.48C32.62 26.28 32.45 26.12 32.25 26.12Z" fill="#4F667A" fill-opacity="1.000000" fill-rule="nonzero"/>
		<path id="Vector" d="M30.95 31.78C30.95 33.19 30.4 34.51 29.4 35.49C28.41 36.46 27.12 37 25.74 37C25.71 37 25.69 37 25.66 36.99C25.44 36.99 25.22 36.97 25.01 36.94C23.91 36.79 22.88 36.28 22.07 35.48C21.11 34.53 20.56 33.26 20.52 31.91C20.48 30.08 21.4 28.37 22.93 27.39L22.93 14.8C22.93 13.51 23.81 12.41 25 12.09C25.24 12.03 25.48 12 25.74 12C27.28 12 28.54 13.25 28.54 14.8L28.54 27.39C30.03 28.34 30.95 30.01 30.95 31.78Z" fill="#E9F5FF" fill-opacity="1.000000" fill-rule="nonzero"/>
		<path id="Vector" d="M30.95 31.78C30.95 33.19 30.4 34.51 29.4 35.49C28.41 36.46 27.12 37 25.74 37C24.82 37 24.27 37 24.27 37C24.52 37 24.77 36.98 25.01 36.94C26.11 36.79 27.13 36.29 27.93 35.49C28.93 34.51 29.48 33.19 29.48 31.78C29.48 30.01 28.57 29.82 27.08 28.86L27.08 14.8C27.08 13.51 26.2 12.41 25 12.09C25.24 12.03 25.48 12 25.74 12C27.28 12 28.54 13.25 28.54 14.8L28.54 27.39C30.03 28.34 30.95 30.01 30.95 31.78Z" fill="#CDEAF7" fill-opacity="1.000000" fill-rule="nonzero"/>
		<path id="Vector" d="M29.48 31.79C29.48 32.8 29.09 33.75 28.37 34.46C27.66 35.16 26.73 35.54 25.73 35.54C25.72 35.54 25.7 35.54 25.68 35.54C25.5 35.53 25.31 35.52 25.13 35.49C24.37 35.36 23.66 35 23.1 34.45C22.41 33.76 22.01 32.85 21.99 31.88C21.96 30.52 22.67 29.24 23.85 28.55C24.18 28.35 24.39 27.99 24.39 27.6L24.39 14.81C24.39 14.29 24.69 13.84 25.13 13.61C25.31 13.52 25.52 13.47 25.74 13.47C26.48 13.47 27.08 14.07 27.08 14.81L27.08 27.6C27.08 27.99 27.29 28.35 27.62 28.55C28.77 29.22 29.48 30.46 29.48 31.79Z" fill="#FF6E6E" fill-opacity="1.000000" fill-rule="nonzero"/>
		<path id="Vector" d="M29.48 31.79C29.48 32.8 29.09 33.75 28.37 34.46C27.66 35.16 26.73 35.54 25.73 35.54C25.72 35.54 25.7 35.54 25.68 35.54C25.5 35.53 25.31 35.52 25.13 35.49C25.89 35.36 26.59 35.01 27.15 34.46C27.87 33.75 28.26 32.8 28.26 31.79C28.26 30.46 27.55 29.22 26.4 28.55C26.07 28.35 25.86 27.99 25.86 27.6L25.86 14.81C25.86 14.29 25.56 13.84 25.13 13.61C25.31 13.52 25.52 13.47 25.74 13.47C26.48 13.47 27.08 14.07 27.08 14.81L27.08 27.6C27.08 27.99 27.29 28.35 27.62 28.55C28.77 29.22 29.48 30.46 29.48 31.79Z" fill="#F44E92" fill-opacity="1.000000" fill-rule="nonzero"/>
		<path id="Vector" d="M27.08 14.81L27.08 18.01L24.39 18.01L24.39 14.81C24.39 14.29 24.69 13.84 25.13 13.61C25.31 13.52 25.52 13.47 25.74 13.47C26.48 13.47 27.08 14.07 27.08 14.81Z" fill="#4F667A" fill-opacity="1.000000" fill-rule="nonzero"/>
		<path id="Vector" d="M27.08 14.81L27.08 18.01L25.86 18.01L25.86 14.81C25.86 14.29 25.56 13.84 25.13 13.61C25.31 13.52 25.52 13.47 25.74 13.47C26.48 13.47 27.08 14.07 27.08 14.81Z" fill="#3A5366" fill-opacity="1.000000" fill-rule="nonzero"/>
	</g>
</svg>
