<svg width="56.000000" height="56.000000" viewBox="0 0 56 56" fill="none" xmlns="http://www.w3.org/2000/svg" xmlns:xlink="http://www.w3.org/1999/xlink">
	<desc>
			Created with Pixso.
	</desc>
	<defs>
		<filter id="filter_2_379_dd" x="0.000000" y="0.000000" width="56.000000" height="56.000000" filterUnits="userSpaceOnUse" color-interpolation-filters="sRGB">
			<feFlood flood-opacity="0" result="BackgroundImageFix"/>
			<feColorMatrix in="SourceAlpha" type="matrix" values="0 0 0 0 0 0 0 0 0 0 0 0 0 0 0 0 0 0 127 0" result="hardAlpha"/>
			<feMorphology radius="-1" in="" result="BackgroundImageFix"/>
			<feOffset dx="1" dy="4"/>
			<feGaussianBlur stdDeviation="3.33333"/>
			<feComposite in2="hardAlpha" operator="out" k2="-1" k3="1"/>
			<feColorMatrix type="matrix" values="0 0 0 0 0.27843 0 0 0 0 0.57647 0 0 0 0 1 0 0 0 0.2 0"/>
			<feBlend mode="normal" in2="BackgroundImageFix" result="effect_dropShadow_1"/>
			<feBlend mode="normal" in="SourceGraphic" in2="effect_dropShadow_1" result="shape"/>
		</filter>
		<clipPath id="clip2_428">
			<rect id="wind 1" width="20.000000" height="20.000000" transform="translate(17.000000 15.000000)" fill="white" fill-opacity="0"/>
		</clipPath>
	</defs>
	<g filter="url(#filter_2_379_dd)">
		<circle id="Ellipse 4" cx="27.000000" cy="24.000000" r="19.000000" fill="#FFFFFF" fill-opacity="1.000000"/>
	</g>
	<rect id="wind 1" width="20.000000" height="20.000000" transform="translate(17.000000 15.000000)" fill="#FFFFFF" fill-opacity="0"/>
	<g clip-path="url(#clip2_428)">
		<path id="Vector" d="M33.08 17.6C30.92 17.6 29.17 19.36 29.17 21.52C29.17 21.76 29.36 21.95 29.6 21.95C29.84 21.95 30.04 21.76 30.04 21.52C30.04 19.84 31.4 18.47 33.08 18.47C34.76 18.47 36.13 19.84 36.13 21.52C36.13 23.2 34.76 24.56 33.08 24.56L17.43 24.56C17.19 24.56 17 24.76 17 25C17 25.24 17.19 25.43 17.43 25.43L33.08 25.43C35.24 25.43 37 23.67 37 21.52C37 19.36 35.24 17.6 33.08 17.6Z" fill="#007AFF" fill-opacity="1.000000" fill-rule="nonzero"/>
		<path id="Vector" d="M17.43 22.82L24.82 22.82C26.5 22.82 27.86 21.46 27.86 19.78C27.86 18.1 26.5 16.73 24.82 16.73C23.14 16.73 21.78 18.1 21.78 19.78C21.78 20.02 21.97 20.21 22.21 20.21C22.45 20.21 22.65 20.02 22.65 19.78C22.65 18.58 23.62 17.6 24.82 17.6C26.02 17.6 27 18.58 27 19.78C27 20.98 26.02 21.95 24.82 21.95L17.43 21.95C17.19 21.95 17 22.15 17 22.39C17 22.63 17.19 22.82 17.43 22.82Z" fill="#007AFF" fill-opacity="1.000000" fill-rule="nonzero"/>
		<path id="Vector" d="M32.21 32.39C31.01 32.39 30.04 31.41 30.04 30.21C30.04 29.97 29.84 29.78 29.6 29.78C29.36 29.78 29.17 29.97 29.17 30.21C29.17 31.89 30.53 33.26 32.21 33.26C33.89 33.26 35.26 31.89 35.26 30.21C35.26 28.53 33.89 27.17 32.21 27.17L17.43 27.17C17.19 27.17 17 27.36 17 27.6C17 27.84 17.19 28.04 17.43 28.04L32.21 28.04C33.41 28.04 34.39 29.01 34.39 30.21C34.39 31.41 33.41 32.39 32.21 32.39Z" fill="#007AFF" fill-opacity="1.000000" fill-rule="nonzero"/>
	</g>
</svg>
